<svg width="240" height="240" viewBox="0 0 240 240" fill="none" xmlns="http://www.w3.org/2000/svg">
<rect x="0.576631" y="0.576631" width="238.847" height="238.847" rx="5.18968" stroke="white" stroke-width="1.15326"/>
<path d="M30.1152 147.49V157H28.4805V147.49H30.1152ZM33.3057 147.49V148.809H25.3516V147.49H33.3057ZM34.1055 152.351V152.148C34.1055 151.463 34.2051 150.827 34.4043 150.241C34.6035 149.649 34.8906 149.137 35.2656 148.703C35.6406 148.264 36.0947 147.924 36.6279 147.684C37.1611 147.438 37.7588 147.314 38.4209 147.314C39.0889 147.314 39.6895 147.438 40.2227 147.684C40.7617 147.924 41.2188 148.264 41.5938 148.703C41.9746 149.137 42.2646 149.649 42.4639 150.241C42.6631 150.827 42.7627 151.463 42.7627 152.148V152.351C42.7627 153.036 42.6631 153.672 42.4639 154.258C42.2646 154.844 41.9746 155.356 41.5938 155.796C41.2188 156.229 40.7646 156.569 40.2314 156.815C39.7041 157.056 39.1064 157.176 38.4385 157.176C37.7705 157.176 37.1699 157.056 36.6367 156.815C36.1035 156.569 35.6465 156.229 35.2656 155.796C34.8906 155.356 34.6035 154.844 34.4043 154.258C34.2051 153.672 34.1055 153.036 34.1055 152.351ZM35.7314 152.148V152.351C35.7314 152.825 35.7871 153.273 35.8984 153.695C36.0098 154.111 36.1768 154.48 36.3994 154.803C36.6279 155.125 36.9121 155.38 37.252 155.567C37.5918 155.749 37.9873 155.84 38.4385 155.84C38.8838 155.84 39.2734 155.749 39.6074 155.567C39.9473 155.38 40.2285 155.125 40.4512 154.803C40.6738 154.48 40.8408 154.111 40.9521 153.695C41.0693 153.273 41.1279 152.825 41.1279 152.351V152.148C41.1279 151.68 41.0693 151.237 40.9521 150.821C40.8408 150.399 40.6709 150.027 40.4424 149.705C40.2197 149.377 39.9385 149.119 39.5986 148.932C39.2646 148.744 38.8721 148.65 38.4209 148.65C37.9756 148.65 37.583 148.744 37.2432 148.932C36.9092 149.119 36.6279 149.377 36.3994 149.705C36.1768 150.027 36.0098 150.399 35.8984 150.821C35.7871 151.237 35.7314 151.68 35.7314 152.148ZM51.2529 151.612V152.931H46.2256V151.612H51.2529ZM46.5684 147.49V157H44.9424V147.49H46.5684ZM52.5713 147.49V157H50.9365V147.49H52.5713ZM61.6416 151.612V152.931H56.6143V151.612H61.6416ZM56.957 147.49V157H55.3311V147.49H56.957ZM62.96 147.49V157H61.3252V147.49H62.96ZM81.8125 149.942V151.278H70.0703V149.942H81.8125ZM88.1406 152.351V152.148C88.1406 151.463 88.2402 150.827 88.4395 150.241C88.6387 149.649 88.9258 149.137 89.3008 148.703C89.6758 148.264 90.1299 147.924 90.6631 147.684C91.1963 147.438 91.7939 147.314 92.4561 147.314C93.124 147.314 93.7246 147.438 94.2578 147.684C94.7969 147.924 95.2539 148.264 95.6289 148.703C96.0098 149.137 96.2998 149.649 96.499 150.241C96.6982 150.827 96.7979 151.463 96.7979 152.148V152.351C96.7979 153.036 96.6982 153.672 96.499 154.258C96.2998 154.844 96.0098 155.356 95.6289 155.796C95.2539 156.229 94.7998 156.569 94.2666 156.815C93.7393 157.056 93.1416 157.176 92.4736 157.176C91.8057 157.176 91.2051 157.056 90.6719 156.815C90.1387 156.569 89.6816 156.229 89.3008 155.796C88.9258 155.356 88.6387 154.844 88.4395 154.258C88.2402 153.672 88.1406 153.036 88.1406 152.351ZM89.7666 152.148V152.351C89.7666 152.825 89.8223 153.273 89.9336 153.695C90.0449 154.111 90.2119 154.48 90.4346 154.803C90.6631 155.125 90.9473 155.38 91.2871 155.567C91.627 155.749 92.0225 155.84 92.4736 155.84C92.9189 155.84 93.3086 155.749 93.6426 155.567C93.9824 155.38 94.2637 155.125 94.4863 154.803C94.709 154.48 94.876 154.111 94.9873 153.695C95.1045 153.273 95.1631 152.825 95.1631 152.351V152.148C95.1631 151.68 95.1045 151.237 94.9873 150.821C94.876 150.399 94.7061 150.027 94.4775 149.705C94.2549 149.377 93.9736 149.119 93.6338 148.932C93.2998 148.744 92.9072 148.65 92.4561 148.65C92.0107 148.65 91.6182 148.744 91.2783 148.932C90.9443 149.119 90.6631 149.377 90.4346 149.705C90.2119 150.027 90.0449 150.399 89.9336 150.821C89.8223 151.237 89.7666 151.68 89.7666 152.148ZM104.937 143.351H106.272C106.272 143.925 106.185 144.382 106.009 144.722C105.833 145.056 105.593 145.313 105.288 145.495C104.989 145.677 104.649 145.814 104.269 145.908C103.894 146.002 103.504 146.093 103.1 146.181C102.596 146.286 102.127 146.453 101.693 146.682C101.266 146.904 100.896 147.221 100.586 147.631C100.281 148.041 100.056 148.574 99.9092 149.23C99.7686 149.887 99.7305 150.698 99.7949 151.665V152.474H98.459V151.665C98.459 150.581 98.5615 149.635 98.7666 148.826C98.9775 148.018 99.2734 147.335 99.6543 146.778C100.035 146.222 100.486 145.779 101.008 145.451C101.535 145.123 102.115 144.897 102.748 144.774C103.205 144.687 103.598 144.593 103.926 144.493C104.254 144.388 104.503 144.247 104.673 144.071C104.849 143.896 104.937 143.655 104.937 143.351ZM103.012 148.035C103.633 148.035 104.187 148.144 104.673 148.36C105.159 148.577 105.572 148.879 105.912 149.266C106.252 149.652 106.51 150.109 106.686 150.637C106.867 151.158 106.958 151.727 106.958 152.342V152.535C106.958 153.197 106.861 153.812 106.668 154.381C106.48 154.943 106.202 155.436 105.833 155.857C105.47 156.273 105.024 156.599 104.497 156.833C103.976 157.067 103.381 157.185 102.713 157.185C102.045 157.185 101.447 157.067 100.92 156.833C100.398 156.599 99.9531 156.273 99.584 155.857C99.2148 155.436 98.9336 154.943 98.7402 154.381C98.5527 153.812 98.459 153.197 98.459 152.535V152.342C98.459 152.195 98.4854 152.052 98.5381 151.911C98.5908 151.771 98.6553 151.627 98.7314 151.48C98.8135 151.334 98.8867 151.179 98.9512 151.015C99.168 150.487 99.4639 149.998 99.8389 149.547C100.22 149.096 100.674 148.732 101.201 148.457C101.734 148.176 102.338 148.035 103.012 148.035ZM102.695 149.362C102.098 149.362 101.605 149.5 101.219 149.775C100.838 150.051 100.554 150.417 100.366 150.874C100.179 151.325 100.085 151.814 100.085 152.342V152.535C100.085 152.98 100.138 153.402 100.243 153.801C100.349 154.199 100.507 154.554 100.718 154.864C100.935 155.169 101.207 155.409 101.535 155.585C101.869 155.761 102.262 155.849 102.713 155.849C103.164 155.849 103.554 155.761 103.882 155.585C104.21 155.409 104.479 155.169 104.69 154.864C104.901 154.554 105.06 154.199 105.165 153.801C105.271 153.402 105.323 152.98 105.323 152.535V152.342C105.323 151.943 105.271 151.565 105.165 151.208C105.06 150.851 104.898 150.534 104.682 150.259C104.471 149.983 104.198 149.767 103.864 149.608C103.536 149.444 103.146 149.362 102.695 149.362ZM108.373 152.351V152.148C108.373 151.463 108.473 150.827 108.672 150.241C108.871 149.649 109.158 149.137 109.533 148.703C109.908 148.264 110.362 147.924 110.896 147.684C111.429 147.438 112.026 147.314 112.688 147.314C113.356 147.314 113.957 147.438 114.49 147.684C115.029 147.924 115.486 148.264 115.861 148.703C116.242 149.137 116.532 149.649 116.731 150.241C116.931 150.827 117.03 151.463 117.03 152.148V152.351C117.03 153.036 116.931 153.672 116.731 154.258C116.532 154.844 116.242 155.356 115.861 155.796C115.486 156.229 115.032 156.569 114.499 156.815C113.972 157.056 113.374 157.176 112.706 157.176C112.038 157.176 111.438 157.056 110.904 156.815C110.371 156.569 109.914 156.229 109.533 155.796C109.158 155.356 108.871 154.844 108.672 154.258C108.473 153.672 108.373 153.036 108.373 152.351ZM109.999 152.148V152.351C109.999 152.825 110.055 153.273 110.166 153.695C110.277 154.111 110.444 154.48 110.667 154.803C110.896 155.125 111.18 155.38 111.52 155.567C111.859 155.749 112.255 155.84 112.706 155.84C113.151 155.84 113.541 155.749 113.875 155.567C114.215 155.38 114.496 155.125 114.719 154.803C114.941 154.48 115.108 154.111 115.22 153.695C115.337 153.273 115.396 152.825 115.396 152.351V152.148C115.396 151.68 115.337 151.237 115.22 150.821C115.108 150.399 114.938 150.027 114.71 149.705C114.487 149.377 114.206 149.119 113.866 148.932C113.532 148.744 113.14 148.65 112.688 148.65C112.243 148.65 111.851 148.744 111.511 148.932C111.177 149.119 110.896 149.377 110.667 149.705C110.444 150.027 110.277 150.399 110.166 150.821C110.055 151.237 109.999 151.68 109.999 152.148ZM120.695 149.318V160.656H119.061V147.49H120.555L120.695 149.318ZM127.103 152.166V152.351C127.103 153.042 127.021 153.684 126.856 154.275C126.692 154.861 126.452 155.371 126.136 155.805C125.825 156.238 125.441 156.575 124.984 156.815C124.527 157.056 124.003 157.176 123.411 157.176C122.808 157.176 122.274 157.076 121.812 156.877C121.349 156.678 120.956 156.388 120.634 156.007C120.312 155.626 120.054 155.169 119.86 154.636C119.673 154.103 119.544 153.502 119.474 152.834V151.85C119.544 151.146 119.676 150.517 119.869 149.96C120.062 149.403 120.317 148.929 120.634 148.536C120.956 148.138 121.346 147.836 121.803 147.631C122.26 147.42 122.787 147.314 123.385 147.314C123.982 147.314 124.513 147.432 124.976 147.666C125.438 147.895 125.828 148.223 126.145 148.65C126.461 149.078 126.698 149.591 126.856 150.188C127.021 150.78 127.103 151.439 127.103 152.166ZM125.468 152.351V152.166C125.468 151.691 125.418 151.246 125.318 150.83C125.219 150.408 125.063 150.039 124.853 149.723C124.647 149.4 124.384 149.148 124.062 148.967C123.739 148.779 123.355 148.686 122.91 148.686C122.5 148.686 122.143 148.756 121.838 148.896C121.539 149.037 121.284 149.228 121.073 149.468C120.862 149.702 120.689 149.972 120.555 150.276C120.426 150.575 120.329 150.886 120.265 151.208V153.484C120.382 153.895 120.546 154.281 120.757 154.645C120.968 155.002 121.249 155.292 121.601 155.515C121.952 155.731 122.395 155.84 122.928 155.84C123.367 155.84 123.745 155.749 124.062 155.567C124.384 155.38 124.647 155.125 124.853 154.803C125.063 154.48 125.219 154.111 125.318 153.695C125.418 153.273 125.468 152.825 125.468 152.351ZM128.746 152.351V152.148C128.746 151.463 128.846 150.827 129.045 150.241C129.244 149.649 129.531 149.137 129.906 148.703C130.281 148.264 130.735 147.924 131.269 147.684C131.802 147.438 132.399 147.314 133.062 147.314C133.729 147.314 134.33 147.438 134.863 147.684C135.402 147.924 135.859 148.264 136.234 148.703C136.615 149.137 136.905 149.649 137.104 150.241C137.304 150.827 137.403 151.463 137.403 152.148V152.351C137.403 153.036 137.304 153.672 137.104 154.258C136.905 154.844 136.615 155.356 136.234 155.796C135.859 156.229 135.405 156.569 134.872 156.815C134.345 157.056 133.747 157.176 133.079 157.176C132.411 157.176 131.811 157.056 131.277 156.815C130.744 156.569 130.287 156.229 129.906 155.796C129.531 155.356 129.244 154.844 129.045 154.258C128.846 153.672 128.746 153.036 128.746 152.351ZM130.372 152.148V152.351C130.372 152.825 130.428 153.273 130.539 153.695C130.65 154.111 130.817 154.48 131.04 154.803C131.269 155.125 131.553 155.38 131.893 155.567C132.232 155.749 132.628 155.84 133.079 155.84C133.524 155.84 133.914 155.749 134.248 155.567C134.588 155.38 134.869 155.125 135.092 154.803C135.314 154.48 135.481 154.111 135.593 153.695C135.71 153.273 135.769 152.825 135.769 152.351V152.148C135.769 151.68 135.71 151.237 135.593 150.821C135.481 150.399 135.312 150.027 135.083 149.705C134.86 149.377 134.579 149.119 134.239 148.932C133.905 148.744 133.513 148.65 133.062 148.65C132.616 148.65 132.224 148.744 131.884 148.932C131.55 149.119 131.269 149.377 131.04 149.705C130.817 150.027 130.65 150.399 130.539 150.821C130.428 151.237 130.372 151.68 130.372 152.148ZM143.125 147.49V157H141.49V147.49H143.125ZM146.315 147.49V148.809H138.361V147.49H146.315ZM28.0059 172.49V182H26.3799V172.49H28.0059ZM34.2461 172.49L29.7373 177.939H27.4609L27.2148 176.516H29.0781L32.2686 172.49H34.2461ZM32.4971 182L28.999 177.693L30.0449 176.516L34.5625 182H32.4971ZM35.3535 177.351V177.148C35.3535 176.463 35.4531 175.827 35.6523 175.241C35.8516 174.649 36.1387 174.137 36.5137 173.703C36.8887 173.264 37.3428 172.924 37.876 172.684C38.4092 172.438 39.0068 172.314 39.6689 172.314C40.3369 172.314 40.9375 172.438 41.4707 172.684C42.0098 172.924 42.4668 173.264 42.8418 173.703C43.2227 174.137 43.5127 174.649 43.7119 175.241C43.9111 175.827 44.0107 176.463 44.0107 177.148V177.351C44.0107 178.036 43.9111 178.672 43.7119 179.258C43.5127 179.844 43.2227 180.356 42.8418 180.796C42.4668 181.229 42.0127 181.569 41.4795 181.815C40.9521 182.056 40.3545 182.176 39.6865 182.176C39.0186 182.176 38.418 182.056 37.8848 181.815C37.3516 181.569 36.8945 181.229 36.5137 180.796C36.1387 180.356 35.8516 179.844 35.6523 179.258C35.4531 178.672 35.3535 178.036 35.3535 177.351ZM36.9795 177.148V177.351C36.9795 177.825 37.0352 178.273 37.1465 178.695C37.2578 179.111 37.4248 179.48 37.6475 179.803C37.876 180.125 38.1602 180.38 38.5 180.567C38.8398 180.749 39.2354 180.84 39.6865 180.84C40.1318 180.84 40.5215 180.749 40.8555 180.567C41.1953 180.38 41.4766 180.125 41.6992 179.803C41.9219 179.48 42.0889 179.111 42.2002 178.695C42.3174 178.273 42.376 177.825 42.376 177.351V177.148C42.376 176.68 42.3174 176.237 42.2002 175.821C42.0889 175.399 41.9189 175.027 41.6904 174.705C41.4678 174.377 41.1865 174.119 40.8467 173.932C40.5127 173.744 40.1201 173.65 39.6689 173.65C39.2236 173.65 38.8311 173.744 38.4912 173.932C38.1572 174.119 37.876 174.377 37.6475 174.705C37.4248 175.027 37.2578 175.399 37.1465 175.821C37.0352 176.237 36.9795 176.68 36.9795 177.148ZM51.5166 179.838L54.751 172.49H56.3154L52.0791 182H50.9541L46.7354 172.49H48.2998L51.5166 179.838ZM47.8252 172.49V182H46.1992V172.49H47.8252ZM55.1553 182V172.49H56.79V182H55.1553ZM65.7461 172.49V173.835H60.9385V172.49H65.7461ZM61.1758 172.49V182H59.5498V172.49H61.1758ZM67.1875 172.49V182H65.5527V172.49H67.1875ZM69.3672 177.351V177.148C69.3672 176.463 69.4668 175.827 69.666 175.241C69.8652 174.649 70.1523 174.137 70.5273 173.703C70.9023 173.264 71.3564 172.924 71.8896 172.684C72.4229 172.438 73.0205 172.314 73.6826 172.314C74.3506 172.314 74.9512 172.438 75.4844 172.684C76.0234 172.924 76.4805 173.264 76.8555 173.703C77.2363 174.137 77.5264 174.649 77.7256 175.241C77.9248 175.827 78.0244 176.463 78.0244 177.148V177.351C78.0244 178.036 77.9248 178.672 77.7256 179.258C77.5264 179.844 77.2363 180.356 76.8555 180.796C76.4805 181.229 76.0264 181.569 75.4932 181.815C74.9658 182.056 74.3682 182.176 73.7002 182.176C73.0322 182.176 72.4316 182.056 71.8984 181.815C71.3652 181.569 70.9082 181.229 70.5273 180.796C70.1523 180.356 69.8652 179.844 69.666 179.258C69.4668 178.672 69.3672 178.036 69.3672 177.351ZM70.9932 177.148V177.351C70.9932 177.825 71.0488 178.273 71.1602 178.695C71.2715 179.111 71.4385 179.48 71.6611 179.803C71.8896 180.125 72.1738 180.38 72.5137 180.567C72.8535 180.749 73.249 180.84 73.7002 180.84C74.1455 180.84 74.5352 180.749 74.8691 180.567C75.209 180.38 75.4902 180.125 75.7129 179.803C75.9355 179.48 76.1025 179.111 76.2139 178.695C76.3311 178.273 76.3896 177.825 76.3896 177.351V177.148C76.3896 176.68 76.3311 176.237 76.2139 175.821C76.1025 175.399 75.9326 175.027 75.7041 174.705C75.4814 174.377 75.2002 174.119 74.8604 173.932C74.5264 173.744 74.1338 173.65 73.6826 173.65C73.2373 173.65 72.8447 173.744 72.5049 173.932C72.1709 174.119 71.8896 174.377 71.6611 174.705C71.4385 175.027 71.2715 175.399 71.1602 175.821C71.0488 176.237 70.9932 176.68 70.9932 177.148ZM86.5146 176.612V177.931H81.4873V176.612H86.5146ZM81.8301 172.49V182H80.2041V172.49H81.8301ZM87.833 172.49V182H86.1982V172.49H87.833ZM94.3984 182.176C93.7363 182.176 93.1357 182.064 92.5967 181.842C92.0635 181.613 91.6035 181.294 91.2168 180.884C90.8359 180.474 90.543 179.987 90.3379 179.425C90.1328 178.862 90.0303 178.247 90.0303 177.579V177.21C90.0303 176.437 90.1445 175.748 90.373 175.145C90.6016 174.535 90.9121 174.02 91.3047 173.598C91.6973 173.176 92.1426 172.856 92.6406 172.64C93.1387 172.423 93.6543 172.314 94.1875 172.314C94.8672 172.314 95.4531 172.432 95.9453 172.666C96.4434 172.9 96.8506 173.229 97.167 173.65C97.4834 174.066 97.7178 174.559 97.8701 175.127C98.0225 175.689 98.0986 176.305 98.0986 176.973V177.702H90.9971V176.375H96.4727V176.252C96.4492 175.83 96.3613 175.42 96.209 175.021C96.0625 174.623 95.8281 174.295 95.5059 174.037C95.1836 173.779 94.7441 173.65 94.1875 173.65C93.8184 173.65 93.4785 173.729 93.168 173.888C92.8574 174.04 92.5908 174.269 92.3682 174.573C92.1455 174.878 91.9727 175.25 91.8496 175.689C91.7266 176.129 91.665 176.636 91.665 177.21V177.579C91.665 178.03 91.7266 178.455 91.8496 178.854C91.9785 179.246 92.1631 179.592 92.4033 179.891C92.6494 180.189 92.9453 180.424 93.291 180.594C93.6426 180.764 94.041 180.849 94.4863 180.849C95.0605 180.849 95.5469 180.731 95.9453 180.497C96.3438 180.263 96.6924 179.949 96.9912 179.557L97.9756 180.339C97.7705 180.649 97.5098 180.945 97.1934 181.227C96.877 181.508 96.4873 181.736 96.0244 181.912C95.5674 182.088 95.0254 182.176 94.3984 182.176ZM106.448 176.612V177.931H101.421V176.612H106.448ZM101.764 172.49V182H100.138V172.49H101.764ZM107.767 172.49V182H106.132V172.49H107.767ZM114.262 172.49V182H112.627V172.49H114.262ZM117.452 172.49V173.809H109.498V172.49H117.452ZM118.252 177.351V177.148C118.252 176.463 118.352 175.827 118.551 175.241C118.75 174.649 119.037 174.137 119.412 173.703C119.787 173.264 120.241 172.924 120.774 172.684C121.308 172.438 121.905 172.314 122.567 172.314C123.235 172.314 123.836 172.438 124.369 172.684C124.908 172.924 125.365 173.264 125.74 173.703C126.121 174.137 126.411 174.649 126.61 175.241C126.81 175.827 126.909 176.463 126.909 177.148V177.351C126.909 178.036 126.81 178.672 126.61 179.258C126.411 179.844 126.121 180.356 125.74 180.796C125.365 181.229 124.911 181.569 124.378 181.815C123.851 182.056 123.253 182.176 122.585 182.176C121.917 182.176 121.316 182.056 120.783 181.815C120.25 181.569 119.793 181.229 119.412 180.796C119.037 180.356 118.75 179.844 118.551 179.258C118.352 178.672 118.252 178.036 118.252 177.351ZM119.878 177.148V177.351C119.878 177.825 119.934 178.273 120.045 178.695C120.156 179.111 120.323 179.48 120.546 179.803C120.774 180.125 121.059 180.38 121.398 180.567C121.738 180.749 122.134 180.84 122.585 180.84C123.03 180.84 123.42 180.749 123.754 180.567C124.094 180.38 124.375 180.125 124.598 179.803C124.82 179.48 124.987 179.111 125.099 178.695C125.216 178.273 125.274 177.825 125.274 177.351V177.148C125.274 176.68 125.216 176.237 125.099 175.821C124.987 175.399 124.817 175.027 124.589 174.705C124.366 174.377 124.085 174.119 123.745 173.932C123.411 173.744 123.019 173.65 122.567 173.65C122.122 173.65 121.729 173.744 121.39 173.932C121.056 174.119 120.774 174.377 120.546 174.705C120.323 175.027 120.156 175.399 120.045 175.821C119.934 176.237 119.878 176.68 119.878 177.148ZM133.413 177.816H130.293L130.275 176.516H132.824C133.328 176.516 133.747 176.466 134.081 176.366C134.421 176.267 134.676 176.117 134.846 175.918C135.016 175.719 135.101 175.473 135.101 175.18C135.101 174.951 135.051 174.752 134.951 174.582C134.857 174.406 134.714 174.263 134.521 174.151C134.327 174.034 134.087 173.949 133.8 173.896C133.519 173.838 133.188 173.809 132.807 173.809H130.724V182H129.098V172.49H132.807C133.41 172.49 133.952 172.543 134.433 172.648C134.919 172.754 135.332 172.915 135.672 173.132C136.018 173.343 136.281 173.612 136.463 173.94C136.645 174.269 136.735 174.655 136.735 175.101C136.735 175.388 136.677 175.66 136.56 175.918C136.442 176.176 136.27 176.404 136.041 176.604C135.812 176.803 135.531 176.967 135.197 177.096C134.863 177.219 134.479 177.298 134.046 177.333L133.413 177.816ZM133.413 182H129.704L130.513 180.682H133.413C133.864 180.682 134.239 180.626 134.538 180.515C134.837 180.397 135.06 180.233 135.206 180.022C135.358 179.806 135.435 179.548 135.435 179.249C135.435 178.95 135.358 178.695 135.206 178.484C135.06 178.268 134.837 178.104 134.538 177.992C134.239 177.875 133.864 177.816 133.413 177.816H130.943L130.961 176.516H134.046L134.635 177.008C135.156 177.049 135.599 177.178 135.962 177.395C136.325 177.611 136.601 177.887 136.788 178.221C136.976 178.549 137.069 178.906 137.069 179.293C137.069 179.738 136.984 180.131 136.814 180.471C136.65 180.811 136.41 181.095 136.094 181.323C135.777 181.546 135.394 181.716 134.942 181.833C134.491 181.944 133.981 182 133.413 182ZM148.179 177.816H145.059L145.041 176.516H147.59C148.094 176.516 148.513 176.466 148.847 176.366C149.187 176.267 149.441 176.117 149.611 175.918C149.781 175.719 149.866 175.473 149.866 175.18C149.866 174.951 149.816 174.752 149.717 174.582C149.623 174.406 149.479 174.263 149.286 174.151C149.093 174.034 148.853 173.949 148.565 173.896C148.284 173.838 147.953 173.809 147.572 173.809H145.489V182H143.863V172.49H147.572C148.176 172.49 148.718 172.543 149.198 172.648C149.685 172.754 150.098 172.915 150.438 173.132C150.783 173.343 151.047 173.612 151.229 173.94C151.41 174.269 151.501 174.655 151.501 175.101C151.501 175.388 151.442 175.66 151.325 175.918C151.208 176.176 151.035 176.404 150.807 176.604C150.578 176.803 150.297 176.967 149.963 177.096C149.629 177.219 149.245 177.298 148.812 177.333L148.179 177.816ZM148.179 182H144.47L145.278 180.682H148.179C148.63 180.682 149.005 180.626 149.304 180.515C149.603 180.397 149.825 180.233 149.972 180.022C150.124 179.806 150.2 179.548 150.2 179.249C150.2 178.95 150.124 178.695 149.972 178.484C149.825 178.268 149.603 178.104 149.304 177.992C149.005 177.875 148.63 177.816 148.179 177.816H145.709L145.727 176.516H148.812L149.4 177.008C149.922 177.049 150.364 177.178 150.728 177.395C151.091 177.611 151.366 177.887 151.554 178.221C151.741 178.549 151.835 178.906 151.835 179.293C151.835 179.738 151.75 180.131 151.58 180.471C151.416 180.811 151.176 181.095 150.859 181.323C150.543 181.546 150.159 181.716 149.708 181.833C149.257 181.944 148.747 182 148.179 182ZM164.623 172.49V173.835H160.229V182H158.603V172.49H164.623ZM165.432 177.351V177.148C165.432 176.463 165.531 175.827 165.73 175.241C165.93 174.649 166.217 174.137 166.592 173.703C166.967 173.264 167.421 172.924 167.954 172.684C168.487 172.438 169.085 172.314 169.747 172.314C170.415 172.314 171.016 172.438 171.549 172.684C172.088 172.924 172.545 173.264 172.92 173.703C173.301 174.137 173.591 174.649 173.79 175.241C173.989 175.827 174.089 176.463 174.089 177.148V177.351C174.089 178.036 173.989 178.672 173.79 179.258C173.591 179.844 173.301 180.356 172.92 180.796C172.545 181.229 172.091 181.569 171.558 181.815C171.03 182.056 170.433 182.176 169.765 182.176C169.097 182.176 168.496 182.056 167.963 181.815C167.43 181.569 166.973 181.229 166.592 180.796C166.217 180.356 165.93 179.844 165.73 179.258C165.531 178.672 165.432 178.036 165.432 177.351ZM167.058 177.148V177.351C167.058 177.825 167.113 178.273 167.225 178.695C167.336 179.111 167.503 179.48 167.726 179.803C167.954 180.125 168.238 180.38 168.578 180.567C168.918 180.749 169.313 180.84 169.765 180.84C170.21 180.84 170.6 180.749 170.934 180.567C171.273 180.38 171.555 180.125 171.777 179.803C172 179.48 172.167 179.111 172.278 178.695C172.396 178.273 172.454 177.825 172.454 177.351V177.148C172.454 176.68 172.396 176.237 172.278 175.821C172.167 175.399 171.997 175.027 171.769 174.705C171.546 174.377 171.265 174.119 170.925 173.932C170.591 173.744 170.198 173.65 169.747 173.65C169.302 173.65 168.909 173.744 168.569 173.932C168.235 174.119 167.954 174.377 167.726 174.705C167.503 175.027 167.336 175.399 167.225 175.821C167.113 176.237 167.058 176.68 167.058 177.148ZM177.209 172.49H178.835L178.694 176.05C178.659 176.952 178.557 177.731 178.387 178.388C178.217 179.044 178 179.604 177.736 180.066C177.473 180.523 177.177 180.907 176.849 181.218C176.526 181.528 176.192 181.789 175.847 182H175.038L175.082 180.673L175.416 180.664C175.609 180.436 175.797 180.201 175.979 179.961C176.16 179.715 176.327 179.425 176.479 179.091C176.632 178.751 176.758 178.338 176.857 177.852C176.963 177.359 177.03 176.759 177.06 176.05L177.209 172.49ZM177.613 172.49H183.335V182H181.709V173.993H177.613V172.49ZM174.669 180.664H184.557V184.804H182.931V182H176.295V184.804H174.66L174.669 180.664Z" fill="white"/>
<path d="M49.4282 65.8602V119.539H42.928V72.6749H42.6135L29.5082 81.3768V74.7718L42.928 65.8602H49.4282ZM82.3748 120.273C78.4258 120.273 75.0621 119.199 72.2838 117.049C69.5054 114.883 67.3824 111.746 65.9146 107.64C64.4468 103.516 63.7129 98.5359 63.7129 92.6997C63.7129 86.8985 64.4468 81.9447 65.9146 77.8384C67.3999 73.7146 69.5317 70.5693 72.31 68.4026C75.1058 66.2184 78.4607 65.1263 82.3748 65.1263C86.2889 65.1263 89.6351 66.2184 92.4134 68.4026C95.2092 70.5693 97.341 73.7146 98.8088 77.8384C100.294 81.9447 101.037 86.8985 101.037 92.6997C101.037 98.5359 100.303 103.516 98.835 107.64C97.3672 111.746 95.2442 114.883 92.4659 117.049C89.6875 119.199 86.3239 120.273 82.3748 120.273ZM82.3748 114.507C86.2889 114.507 89.3293 112.62 91.4961 108.845C93.6628 105.071 94.7462 99.6892 94.7462 92.6997C94.7462 88.0517 94.2482 84.094 93.2522 80.8264C92.2736 77.5588 90.8583 75.0688 89.0061 73.3564C87.1713 71.644 84.9609 70.7878 82.3748 70.7878C78.4957 70.7878 75.464 72.7011 73.2798 76.5279C71.0956 80.3371 70.0034 85.7277 70.0034 92.6997C70.0034 97.3477 70.4927 101.297 71.4712 104.547C72.4498 107.797 73.8564 110.27 75.6911 111.964C77.5433 113.659 79.7712 114.507 82.3748 114.507ZM128.505 120.273C124.556 120.273 121.193 119.199 118.414 117.049C115.636 114.883 113.513 111.746 112.045 107.64C110.577 103.516 109.843 98.5359 109.843 92.6997C109.843 86.8985 110.577 81.9447 112.045 77.8384C113.53 73.7146 115.662 70.5693 118.44 68.4026C121.236 66.2184 124.591 65.1263 128.505 65.1263C132.419 65.1263 135.766 66.2184 138.544 68.4026C141.34 70.5693 143.472 73.7146 144.939 77.8384C146.425 81.9447 147.167 86.8985 147.167 92.6997C147.167 98.5359 146.433 103.516 144.966 107.64C143.498 111.746 141.375 114.883 138.596 117.049C135.818 119.199 132.454 120.273 128.505 120.273ZM128.505 114.507C132.419 114.507 135.46 112.62 137.627 108.845C139.793 105.071 140.877 99.6892 140.877 92.6997C140.877 88.0517 140.379 84.094 139.383 80.8264C138.404 77.5588 136.989 75.0688 135.137 73.3564C133.302 71.644 131.091 70.7878 128.505 70.7878C124.626 70.7878 121.594 72.7011 119.41 76.5279C117.226 80.3371 116.134 85.7277 116.134 92.6997C116.134 97.3477 116.623 101.297 117.602 104.547C118.58 107.797 119.987 110.27 121.822 111.964C123.674 113.659 125.902 114.507 128.505 114.507ZM172.958 110.104V75.5056H178.829V110.104H172.958ZM158.595 95.7402V89.869H193.193V95.7402H158.595Z" fill="white"/>
</svg>
