<svg width="240" height="240" viewBox="0 0 240 240" fill="none" xmlns="http://www.w3.org/2000/svg">
<rect x="0.576631" y="0.576631" width="238.847" height="238.847" rx="5.18968" stroke="#FAFAFA" stroke-width="1.15326"/>
<path d="M63.5938 154.342V155.687H58.9971V154.342H63.5938ZM65.0264 154.342V163.852H63.4004V154.342H65.0264ZM58.6016 154.342H60.2363L59.9902 158.93C59.9492 159.639 59.8818 160.266 59.7881 160.811C59.7002 161.35 59.5771 161.813 59.4189 162.2C59.2666 162.587 59.0732 162.903 58.8389 163.149C58.6104 163.389 58.335 163.568 58.0127 163.685C57.6904 163.797 57.3184 163.852 56.8965 163.852H56.3867V162.42L56.7383 162.393C56.9902 162.376 57.2041 162.317 57.3799 162.217C57.5615 162.118 57.7139 161.971 57.8369 161.778C57.96 161.579 58.0596 161.324 58.1357 161.013C58.2178 160.703 58.2793 160.334 58.3203 159.906C58.3672 159.478 58.4023 158.98 58.4258 158.412L58.6016 154.342ZM71.5918 164.028C70.9297 164.028 70.3291 163.917 69.79 163.694C69.2568 163.465 68.7969 163.146 68.4102 162.736C68.0293 162.326 67.7363 161.839 67.5312 161.277C67.3262 160.714 67.2236 160.099 67.2236 159.431V159.062C67.2236 158.289 67.3379 157.6 67.5664 156.997C67.7949 156.387 68.1055 155.872 68.498 155.45C68.8906 155.028 69.3359 154.709 69.834 154.492C70.332 154.275 70.8477 154.167 71.3809 154.167C72.0605 154.167 72.6465 154.284 73.1387 154.518C73.6367 154.753 74.0439 155.081 74.3604 155.503C74.6768 155.919 74.9111 156.411 75.0635 156.979C75.2158 157.542 75.292 158.157 75.292 158.825V159.554H68.1904V158.227H73.666V158.104C73.6426 157.682 73.5547 157.272 73.4023 156.874C73.2559 156.475 73.0215 156.147 72.6992 155.889C72.377 155.631 71.9375 155.503 71.3809 155.503C71.0117 155.503 70.6719 155.582 70.3613 155.74C70.0508 155.892 69.7842 156.121 69.5615 156.425C69.3389 156.73 69.166 157.102 69.043 157.542C68.9199 157.981 68.8584 158.488 68.8584 159.062V159.431C68.8584 159.882 68.9199 160.307 69.043 160.706C69.1719 161.098 69.3564 161.444 69.5967 161.743C69.8428 162.042 70.1387 162.276 70.4844 162.446C70.8359 162.616 71.2344 162.701 71.6797 162.701C72.2539 162.701 72.7402 162.584 73.1387 162.349C73.5371 162.115 73.8857 161.801 74.1846 161.409L75.1689 162.191C74.9639 162.502 74.7031 162.797 74.3867 163.079C74.0703 163.36 73.6807 163.589 73.2178 163.764C72.7607 163.94 72.2188 164.028 71.5918 164.028ZM80.9609 154.342V163.852H79.3262V154.342H80.9609ZM84.1514 154.342V155.661H76.1973V154.342H84.1514ZM94.6807 159.669H91.5605L91.543 158.368H94.0918C94.5957 158.368 95.0146 158.318 95.3486 158.218C95.6885 158.119 95.9434 157.969 96.1133 157.77C96.2832 157.571 96.3682 157.325 96.3682 157.032C96.3682 156.803 96.3184 156.604 96.2188 156.434C96.125 156.258 95.9814 156.115 95.7881 156.004C95.5947 155.886 95.3545 155.801 95.0674 155.749C94.7861 155.69 94.4551 155.661 94.0742 155.661H91.9912V163.852H90.3652V154.342H94.0742C94.6777 154.342 95.2197 154.395 95.7002 154.501C96.1865 154.606 96.5996 154.767 96.9395 154.984C97.2852 155.195 97.5488 155.464 97.7305 155.793C97.9121 156.121 98.0029 156.507 98.0029 156.953C98.0029 157.24 97.9443 157.512 97.8271 157.77C97.71 158.028 97.5371 158.256 97.3086 158.456C97.0801 158.655 96.7988 158.819 96.4648 158.948C96.1309 159.071 95.7471 159.15 95.3135 159.185L94.6807 159.669ZM94.6807 163.852H90.9717L91.7803 162.534H94.6807C95.1318 162.534 95.5068 162.478 95.8057 162.367C96.1045 162.25 96.3271 162.086 96.4736 161.875C96.626 161.658 96.7021 161.4 96.7021 161.101C96.7021 160.802 96.626 160.547 96.4736 160.337C96.3271 160.12 96.1045 159.956 95.8057 159.844C95.5068 159.727 95.1318 159.669 94.6807 159.669H92.2109L92.2285 158.368H95.3135L95.9023 158.86C96.4238 158.901 96.8662 159.03 97.2295 159.247C97.5928 159.464 97.8682 159.739 98.0557 160.073C98.2432 160.401 98.3369 160.758 98.3369 161.145C98.3369 161.59 98.252 161.983 98.082 162.323C97.918 162.663 97.6777 162.947 97.3613 163.175C97.0449 163.398 96.6611 163.568 96.21 163.685C95.7588 163.797 95.249 163.852 94.6807 163.852ZM104.551 159.203V159.001C104.551 158.315 104.65 157.679 104.85 157.093C105.049 156.502 105.336 155.989 105.711 155.555C106.086 155.116 106.54 154.776 107.073 154.536C107.606 154.29 108.204 154.167 108.866 154.167C109.534 154.167 110.135 154.29 110.668 154.536C111.207 154.776 111.664 155.116 112.039 155.555C112.42 155.989 112.71 156.502 112.909 157.093C113.108 157.679 113.208 158.315 113.208 159.001V159.203C113.208 159.888 113.108 160.524 112.909 161.11C112.71 161.696 112.42 162.209 112.039 162.648C111.664 163.082 111.21 163.422 110.677 163.668C110.149 163.908 109.552 164.028 108.884 164.028C108.216 164.028 107.615 163.908 107.082 163.668C106.549 163.422 106.092 163.082 105.711 162.648C105.336 162.209 105.049 161.696 104.85 161.11C104.65 160.524 104.551 159.888 104.551 159.203ZM106.177 159.001V159.203C106.177 159.677 106.232 160.126 106.344 160.547C106.455 160.964 106.622 161.333 106.845 161.655C107.073 161.977 107.357 162.232 107.697 162.42C108.037 162.601 108.433 162.692 108.884 162.692C109.329 162.692 109.719 162.601 110.053 162.42C110.393 162.232 110.674 161.977 110.896 161.655C111.119 161.333 111.286 160.964 111.397 160.547C111.515 160.126 111.573 159.677 111.573 159.203V159.001C111.573 158.532 111.515 158.089 111.397 157.673C111.286 157.252 111.116 156.88 110.888 156.557C110.665 156.229 110.384 155.971 110.044 155.784C109.71 155.596 109.317 155.503 108.866 155.503C108.421 155.503 108.028 155.596 107.688 155.784C107.354 155.971 107.073 156.229 106.845 156.557C106.622 156.88 106.455 157.252 106.344 157.673C106.232 158.089 106.177 158.532 106.177 159.001ZM118.93 154.342V163.852H117.295V154.342H118.93ZM122.12 154.342V155.661H114.166V154.342H122.12ZM125.346 156.171V167.508H123.711V154.342H125.205L125.346 156.171ZM131.753 159.018V159.203C131.753 159.894 131.671 160.536 131.507 161.128C131.343 161.714 131.103 162.223 130.786 162.657C130.476 163.09 130.092 163.427 129.635 163.668C129.178 163.908 128.653 164.028 128.062 164.028C127.458 164.028 126.925 163.928 126.462 163.729C125.999 163.53 125.606 163.24 125.284 162.859C124.962 162.478 124.704 162.021 124.511 161.488C124.323 160.955 124.194 160.354 124.124 159.686V158.702C124.194 157.999 124.326 157.369 124.52 156.812C124.713 156.255 124.968 155.781 125.284 155.388C125.606 154.99 125.996 154.688 126.453 154.483C126.91 154.272 127.438 154.167 128.035 154.167C128.633 154.167 129.163 154.284 129.626 154.518C130.089 154.747 130.479 155.075 130.795 155.503C131.111 155.93 131.349 156.443 131.507 157.041C131.671 157.632 131.753 158.292 131.753 159.018ZM130.118 159.203V159.018C130.118 158.544 130.068 158.098 129.969 157.682C129.869 157.26 129.714 156.891 129.503 156.575C129.298 156.253 129.034 156.001 128.712 155.819C128.39 155.631 128.006 155.538 127.561 155.538C127.15 155.538 126.793 155.608 126.488 155.749C126.189 155.889 125.935 156.08 125.724 156.32C125.513 156.554 125.34 156.824 125.205 157.129C125.076 157.427 124.979 157.738 124.915 158.06V160.337C125.032 160.747 125.196 161.133 125.407 161.497C125.618 161.854 125.899 162.144 126.251 162.367C126.603 162.584 127.045 162.692 127.578 162.692C128.018 162.692 128.396 162.601 128.712 162.42C129.034 162.232 129.298 161.977 129.503 161.655C129.714 161.333 129.869 160.964 129.969 160.547C130.068 160.126 130.118 159.677 130.118 159.203ZM139.435 162.226V157.331C139.435 156.956 139.358 156.63 139.206 156.355C139.06 156.074 138.837 155.857 138.538 155.705C138.239 155.552 137.87 155.476 137.431 155.476C137.021 155.476 136.66 155.547 136.35 155.687C136.045 155.828 135.805 156.012 135.629 156.241C135.459 156.469 135.374 156.715 135.374 156.979H133.748C133.748 156.639 133.836 156.302 134.012 155.968C134.188 155.634 134.439 155.333 134.768 155.063C135.102 154.788 135.5 154.571 135.963 154.413C136.432 154.249 136.953 154.167 137.527 154.167C138.219 154.167 138.828 154.284 139.355 154.518C139.889 154.753 140.305 155.107 140.604 155.582C140.908 156.05 141.061 156.639 141.061 157.348V161.778C141.061 162.094 141.087 162.431 141.14 162.789C141.198 163.146 141.283 163.454 141.395 163.712V163.852H139.698C139.616 163.665 139.552 163.416 139.505 163.105C139.458 162.789 139.435 162.496 139.435 162.226ZM139.716 158.087L139.733 159.229H138.09C137.627 159.229 137.214 159.267 136.851 159.343C136.487 159.414 136.183 159.522 135.937 159.669C135.69 159.815 135.503 160 135.374 160.222C135.245 160.439 135.181 160.694 135.181 160.987C135.181 161.286 135.248 161.558 135.383 161.804C135.518 162.05 135.72 162.247 135.989 162.393C136.265 162.534 136.602 162.604 137 162.604C137.498 162.604 137.938 162.499 138.318 162.288C138.699 162.077 139.001 161.819 139.224 161.514C139.452 161.21 139.575 160.914 139.593 160.627L140.287 161.409C140.246 161.655 140.135 161.927 139.953 162.226C139.771 162.525 139.528 162.812 139.224 163.088C138.925 163.357 138.567 163.583 138.151 163.764C137.741 163.94 137.278 164.028 136.763 164.028C136.118 164.028 135.553 163.902 135.066 163.65C134.586 163.398 134.211 163.061 133.941 162.639C133.678 162.212 133.546 161.734 133.546 161.207C133.546 160.697 133.646 160.249 133.845 159.862C134.044 159.469 134.331 159.144 134.706 158.886C135.081 158.623 135.532 158.423 136.06 158.289C136.587 158.154 137.176 158.087 137.826 158.087H139.716ZM147.424 162.692C147.811 162.692 148.168 162.613 148.496 162.455C148.824 162.297 149.094 162.08 149.305 161.804C149.516 161.523 149.636 161.204 149.665 160.846H151.212C151.183 161.409 150.992 161.933 150.641 162.42C150.295 162.9 149.841 163.29 149.278 163.589C148.716 163.881 148.098 164.028 147.424 164.028C146.709 164.028 146.085 163.902 145.552 163.65C145.024 163.398 144.585 163.052 144.233 162.613C143.888 162.173 143.627 161.67 143.451 161.101C143.281 160.527 143.196 159.921 143.196 159.282V158.913C143.196 158.274 143.281 157.671 143.451 157.102C143.627 156.528 143.888 156.021 144.233 155.582C144.585 155.142 145.024 154.797 145.552 154.545C146.085 154.293 146.709 154.167 147.424 154.167C148.168 154.167 148.818 154.319 149.375 154.624C149.932 154.922 150.368 155.333 150.685 155.854C151.007 156.37 151.183 156.956 151.212 157.612H149.665C149.636 157.219 149.524 156.865 149.331 156.548C149.144 156.232 148.886 155.98 148.558 155.793C148.235 155.599 147.857 155.503 147.424 155.503C146.926 155.503 146.507 155.602 146.167 155.801C145.833 155.995 145.566 156.258 145.367 156.592C145.174 156.921 145.033 157.287 144.945 157.691C144.863 158.089 144.822 158.497 144.822 158.913V159.282C144.822 159.698 144.863 160.108 144.945 160.512C145.027 160.917 145.165 161.283 145.358 161.611C145.558 161.939 145.824 162.203 146.158 162.402C146.498 162.595 146.92 162.692 147.424 162.692ZM159.395 154.342V155.687H154.798V154.342H159.395ZM160.827 154.342V163.852H159.201V154.342H160.827ZM154.402 154.342H156.037L155.791 158.93C155.75 159.639 155.683 160.266 155.589 160.811C155.501 161.35 155.378 161.813 155.22 162.2C155.067 162.587 154.874 162.903 154.64 163.149C154.411 163.389 154.136 163.568 153.813 163.685C153.491 163.797 153.119 163.852 152.697 163.852H152.188V162.42L152.539 162.393C152.791 162.376 153.005 162.317 153.181 162.217C153.362 162.118 153.515 161.971 153.638 161.778C153.761 161.579 153.86 161.324 153.937 161.013C154.019 160.703 154.08 160.334 154.121 159.906C154.168 159.478 154.203 158.98 154.227 158.412L154.402 154.342ZM165.204 161.277L169.59 154.342H171.225V163.852H169.59V156.918L165.204 163.852H163.587V154.342H165.204V161.277Z" fill="white"/>
<path d="M64.0754 126L88.0842 78.5066V78.0872H60.4059V72.3209H94.7941V78.4017L70.8901 126H64.0754ZM120.395 116.564V81.9663H126.266V116.564H120.395ZM106.032 102.201V96.3297H140.63V102.201H106.032Z" fill="white"/>
</svg>
