<svg width="281" height="80" viewBox="0 0 281 80" fill="none" xmlns="http://www.w3.org/2000/svg">
<path d="M1.84375 17.2469L16.403 26.2852L30.0472 18.0141V0L1.84375 17.2469Z" fill="#3B75B9"/>
<path d="M30.0476 0V18.0141L30.0956 17.9848L43.5273 26.2852L58.2511 17.2469L30.0476 0Z" fill="#1F5EA9"/>
<path d="M14.7238 29.743L0 20.6129V61.1493L30.0474 79.8279V61.5642L14.854 52.2946L14.7238 29.743Z" fill="#89B6E2"/>
<path d="M59.6734 61.2158V43.4403L30.0476 61.5646V79.8284L59.6734 61.2158Z" fill="#3B75B9"/>
<path d="M18.4185 31.8358V50.2207L30.0474 57.2325V38.921L18.4185 31.8358Z" fill="#89B6E2"/>
<path d="M59.6734 20.6129L30.0476 38.9207V57.2323L59.6734 38.6197V20.6129Z" fill="#3B75B9"/>
<path d="M102.518 35.2759C105.449 36.2047 107.831 37.8273 109.668 40.1511C111.505 42.4713 112.423 45.2687 112.423 48.5396C112.423 53.3121 110.925 57.0493 107.937 59.7439C104.945 62.4421 101.281 63.7894 96.9488 63.7894C93.566 63.7894 90.5431 62.9598 87.8801 61.3041C85.217 59.6484 83.2874 57.2035 82.0913 53.9765L89.3949 49.4684C90.4677 53.0478 92.9868 54.8393 96.9453 54.8393C99.132 54.8393 100.835 54.2739 102.052 53.1469C103.269 52.0198 103.879 50.4853 103.879 48.5396C103.879 46.5939 103.269 45.1145 102.052 43.9654C100.835 42.8164 99.132 42.24 96.9453 42.24H95.0877L91.8078 36.9353L100.349 25.0005H83.3903V16.4468H110.624V24.0056L102.515 35.2759H102.518Z" fill="#333333"/>
<path d="M136.068 28.7819C140.236 28.7819 143.793 30.4743 146.744 33.8554C149.695 37.2365 151.169 41.3812 151.169 46.2858C151.169 51.1904 149.692 55.3351 146.744 58.7162C143.793 62.0973 140.236 63.7896 136.068 63.7896C131.901 63.7896 128.394 62.178 126.04 58.9511V76.1246H118.054V29.7144H126.04V33.6278C128.391 30.4009 131.736 28.7893 136.068 28.7893V28.7819ZM128.453 53.0149C130.064 54.7624 132.106 55.6324 134.581 55.6324C137.055 55.6324 139.108 54.7587 140.74 53.0149C142.371 51.2712 143.183 49.0281 143.183 46.2858C143.183 43.5435 142.368 41.3041 140.74 39.5566C139.108 37.8129 137.055 36.9391 134.581 36.9391C132.106 36.9391 130.064 37.8129 128.453 39.5566C126.842 41.3041 126.04 43.5471 126.04 46.2858C126.04 49.0244 126.845 51.2712 128.453 53.0149Z" fill="#333333"/>
<path d="M174.814 28.7819C178.982 28.7819 182.54 30.4743 185.49 33.8554C188.441 37.2365 189.915 41.3812 189.915 46.2858C189.915 51.1904 188.438 55.3351 185.49 58.7162C182.54 62.0973 178.982 63.7896 174.814 63.7896C170.647 63.7896 167.141 62.178 164.786 58.9511V76.1246H156.8V29.7144H164.786V33.6278C167.137 30.4009 170.482 28.7893 174.814 28.7893V28.7819ZM167.202 53.0149C168.813 54.7624 170.856 55.6324 173.33 55.6324C175.805 55.6324 177.858 54.7587 179.489 53.0149C181.121 51.2712 181.933 49.0281 181.933 46.2858C181.933 43.5435 181.117 41.3041 179.489 39.5566C177.858 37.8129 175.805 36.9391 173.33 36.9391C170.856 36.9391 168.813 37.8129 167.202 39.5566C165.591 41.3041 164.789 43.5471 164.789 46.2858C164.789 49.0244 165.595 51.2712 167.202 53.0149Z" fill="#333333"/>
<path d="M215.976 29.7072H223.962V62.8573H215.976V59.1458C214.036 62.2405 210.962 63.7861 206.753 63.7861C203.371 63.7861 200.574 62.5709 198.367 60.1407C196.16 57.7104 195.056 54.3513 195.056 50.0635V29.7108H203.042V49.0025C203.042 51.2125 203.6 52.9049 204.714 54.076C205.828 55.2471 207.312 55.8345 209.17 55.8345C211.233 55.8345 212.885 55.148 214.122 53.7786C215.359 52.4093 215.98 50.3535 215.98 47.6112V29.7108L215.976 29.7072Z" fill="#333333"/>
<path d="M248.786 45.2689C250.325 45.9811 251.552 47.0531 252.474 48.4922C253.393 49.9312 253.855 51.5686 253.855 53.4114C253.855 56.0289 252.995 58.2573 251.278 60.1002C249.561 61.9431 247.477 62.8609 245.033 62.8609H231.235V28.9398H243.991C246.343 28.9398 248.348 29.8356 250.01 31.6307C251.669 33.4222 252.498 35.5625 252.498 38.0515C252.498 41.216 251.261 43.6243 248.79 45.2726L248.786 45.2689ZM243.991 32.1374H234.402V43.962H243.991C245.469 43.962 246.73 43.3893 247.768 42.2403C248.81 41.0949 249.328 39.6962 249.328 38.0478C249.328 36.3995 248.807 35.0449 247.768 33.8811C246.73 32.7174 245.469 32.1374 243.991 32.1374ZM245.03 59.6597C246.596 59.6597 247.933 59.0539 249.033 57.8425C250.133 56.631 250.685 55.1516 250.685 53.4078C250.685 51.664 250.133 50.2249 249.033 48.9988C247.933 47.7726 246.596 47.1559 245.03 47.1559H234.398V59.6597H245.03Z" fill="#3B75B9"/>
<path d="M280.997 28.9364L269.549 48.9513V62.8575H266.382V48.8522L254.983 28.9364H258.558L268.014 45.5592L277.425 28.9364H281H280.997Z" fill="#3B75B9"/>
</svg>
