<svg width="112" height="37" viewBox="0 0 112 37" fill="none" xmlns="http://www.w3.org/2000/svg">
<path d="M56.28 7.94L52.02 13.58C53.58 13.94 54.82 14.66 55.74 15.74C56.68 16.8 57.15 18.1 57.15 19.64C57.15 21.74 56.44 23.39 55.02 24.59C53.62 25.79 51.88 26.39 49.8 26.39C48.16 26.39 46.71 26.02 45.45 25.28C44.19 24.52 43.29 23.44 42.75 22.04L45.69 20.33C46.31 22.13 47.68 23.03 49.8 23.03C51 23.03 51.95 22.73 52.65 22.13C53.35 21.51 53.7 20.68 53.7 19.64C53.7 18.6 53.35 17.78 52.65 17.18C51.95 16.58 51 16.28 49.8 16.28H49.02L47.64 14.21L52.17 8.24H43.38V5H56.28V7.94Z" fill="#fff"></path>
<path d="M68.5812 10.61C70.6212 10.61 72.3812 11.38 73.8612 12.92C75.3212 14.44 76.0512 16.3 76.0512 18.5C76.0512 20.72 75.3212 22.59 73.8612 24.11C72.4012 25.63 70.6412 26.39 68.5812 26.39C66.3212 26.39 64.5712 25.55 63.3312 23.87V32H60.0912V11H63.3312V13.16C64.5512 11.46 66.3012 10.61 68.5812 10.61ZM64.6812 21.95C65.5812 22.85 66.7112 23.3 68.0712 23.3C69.4312 23.3 70.5612 22.85 71.4612 21.95C72.3612 21.03 72.8112 19.88 72.8112 18.5C72.8112 17.12 72.3612 15.98 71.4612 15.08C70.5612 14.16 69.4312 13.7 68.0712 13.7C66.7112 13.7 65.5812 14.16 64.6812 15.08C63.7812 15.98 63.3312 17.12 63.3312 18.5C63.3312 19.86 63.7812 21.01 64.6812 21.95Z" fill="#ffffff"></path>
<path d="M87.4777 10.61C89.5177 10.61 91.2777 11.38 92.7577 12.92C94.2177 14.44 94.9477 16.3 94.9477 18.5C94.9477 20.72 94.2177 22.59 92.7577 24.11C91.2977 25.63 89.5377 26.39 87.4777 26.39C85.2177 26.39 83.4677 25.55 82.2277 23.87V32H78.9877V11H82.2277V13.16C83.4477 11.46 85.1977 10.61 87.4777 10.61ZM83.5777 21.95C84.4777 22.85 85.6077 23.3 86.9677 23.3C88.3277 23.3 89.4577 22.85 90.3577 21.95C91.2577 21.03 91.7077 19.88 91.7077 18.5C91.7077 17.12 91.2577 15.98 90.3577 15.08C89.4577 14.16 88.3277 13.7 86.9677 13.7C85.6077 13.7 84.4777 14.16 83.5777 15.08C82.6777 15.98 82.2277 17.12 82.2277 18.5C82.2277 19.86 82.6777 21.01 83.5777 21.95Z" fill="#ffffff"></path>
<path d="M107.994 19.04V11H111.234V26H107.994V24.08C106.994 25.62 105.444 26.39 103.344 26.39C101.604 26.39 100.204 25.84 99.1441 24.74C98.1041 23.62 97.5841 22.11 97.5841 20.21V11H100.824V19.88C100.824 21 101.124 21.86 101.724 22.46C102.324 23.06 103.144 23.36 104.184 23.36C105.364 23.36 106.294 23 106.974 22.28C107.654 21.54 107.994 20.46 107.994 19.04Z" fill="#fff"></path>
<path d="M14.501 27.9835V36.2506L28.9998 27.8764V19.6102L14.501 27.9835Z" fill="#ffffff"></path>
<path d="M20.9913 12.0157L28.1453 7.88205L14.501 0V8.26699L20.9913 12.0157Z" fill="#ffffff"></path>
<path d="M8.8665 14.4842V22.7539L14.5012 26.0078V17.7418L8.8665 14.4842Z" fill="#ffffff"></path>
<path d="M28.9998 9.36402L14.5012 17.7418V26.0078L28.9998 17.6334V9.36402Z" fill="#ffffff"></path>
<path d="M0.863017 7.87723L7.97408 12.035L14.501 8.26699V0L0.863017 7.87723Z" fill="#ffffff"></path>
<path d="M7.15638 23.7423V13.493L0 9.36067V27.8756L14.501 36.2506V27.9835L7.15638 23.7423Z" fill="#ffffff"></path>
</svg>